# xmcd
#
# Track frame offsets:
# 150
# 26052
# 40969
# 57429
# 84153
# 104378
# 125944
# 140802
# 161125
# 180173
# 200203
# 217272
# 230747
# 263699
#
# Disc length: 3791 seconds
#
# Revision: 0
# Processed by: cddbd v1.5.2PL0 Copyright (c) Steve Scherf et al.
# Submitted via: Audion 3.0.2 (http://www.panic.com/audion/)
#
DISCID=d80ecd0e
DTITLE=The Blues Cats - Intoxicated
DYEAR=1900
DGENRE=
TTITLE0=Silent Night
TTITLE1=Tin Roof and Acorns
TTITLE2=Broken Finger Blues
TTITLE3=Heartache Relief
TTITLE4=Man on the Run
TTITLE5=Intoxicated
TTITLE6=I.C.C. (Puppy Dog Song)
TTITLE7=Earth Movin Kind
TTITLE8=Blues Cat
TTITLE9=Your Own Way
TTITLE10=Driver
TTITLE11=Love Your Woman
TTITLE12=Rollin Stone
TTITLE13=Heartache Relief (Radio Edit)
EXTD=
EXTT0=
EXTT1=
EXTT2=
EXTT3=
EXTT4=
EXTT5=
EXTT6=
EXTT7=
EXTT8=
EXTT9=
EXTT10=
EXTT11=
EXTT12=
EXTT13=
PLAYORDER=
